<svg width="64" height="64" viewBox="0 0 65 64" fill="none" xmlns="http://www.w3.org/2000/svg">
<mask id="path-1-inside-1_685_1908" fill="white">
<path fill-rule="evenodd" clip-rule="evenodd" d="M15.4058 54C15.4009 54 15.3961 54 15.3913 54C7.99549 54 2 48.0045 2 40.6087C2 33.2129 7.99549 27.2174 15.3913 27.2174C15.5223 27.2174 15.6528 27.2193 15.7828 27.223C18.3938 21.0372 24.516 16.6957 31.6522 16.6957C40.1912 16.6957 47.2783 22.9118 48.6353 31.0658C54.6381 31.4385 59.3913 36.425 59.3913 42.5217C59.3913 48.861 54.2523 54 47.913 54L15.4058 54Z"/>
</mask>
<path d="M15.4058 54V57H15.4058L15.4058 54ZM15.7828 27.223L15.6967 30.2218L17.7485 30.2807L18.5467 28.3896L15.7828 27.223ZM48.6353 31.0658L45.6759 31.5583L46.0677 33.9122L48.4494 34.0601L48.6353 31.0658ZM47.913 54V51H47.913L47.913 54ZM15.4058 51C15.402 51 15.3984 51 15.3962 51C15.3935 51 15.3923 51 15.3913 51V57C15.3951 57 15.3987 57 15.4009 57C15.4035 57 15.4047 57 15.4058 57V51ZM15.3913 51C9.65235 51 5 46.3477 5 40.6087H-1C-1 49.6614 6.33864 57 15.3913 57V51ZM5 40.6087C5 34.8698 9.65235 30.2174 15.3913 30.2174V24.2174C6.33864 24.2174 -1 31.5561 -1 40.6087H5ZM15.3913 30.2174C15.4936 30.2174 15.5954 30.2189 15.6967 30.2218L15.8689 24.2243C15.7102 24.2197 15.551 24.2174 15.3913 24.2174V30.2174ZM18.5467 28.3896C20.7052 23.2757 25.7641 19.6956 31.6522 19.6956V13.6956C23.2678 13.6956 16.0823 18.7987 13.0189 26.0564L18.5467 28.3896ZM31.6522 19.6956C38.7004 19.6956 44.5558 24.8274 45.6759 31.5583L51.5946 30.5734C50.0008 20.9963 41.682 13.6956 31.6522 13.6956V19.6956ZM48.4494 34.0601C52.8805 34.3352 56.3913 38.0196 56.3913 42.5217H62.3913C62.3913 34.8305 56.3957 28.5419 48.8211 28.0716L48.4494 34.0601ZM56.3913 42.5217C56.3913 47.2041 52.5955 51 47.913 51V57C55.9092 57 62.3913 50.5179 62.3913 42.5217H56.3913ZM47.913 51L15.4058 51L15.4058 57L47.913 57L47.913 51Z" fill="#FCFCFC" mask="url(#path-1-inside-1_685_1908)"/>
<mask id="path-3-outside-2_685_1908" maskUnits="userSpaceOnUse" x="23.3405" y="7" width="41" height="34" fill="black">
<rect fill="white" x="23.3405" y="7" width="41" height="34"/>
<path fill-rule="evenodd" clip-rule="evenodd" d="M29.3405 16.8495C30.0966 16.748 30.8683 16.6957 31.6522 16.6957C40.1912 16.6957 47.2783 22.9118 48.6353 31.0658C52.3711 31.2978 55.6229 33.3167 57.5463 36.2781C59.8139 34.7439 61.3044 32.148 61.3044 29.204C61.3044 24.6705 57.7699 20.9626 53.3062 20.6855C52.2972 14.6223 47.0273 10 40.6778 10C35.7563 10 31.4834 12.777 29.3405 16.8495Z"/>
</mask>
<path d="M29.3405 16.8495L26.6855 15.4526L23.9793 20.5958L29.7395 19.8229L29.3405 16.8495ZM48.6352 31.0658L45.6759 31.5583L46.0676 33.9122L48.4493 34.0601L48.6352 31.0658ZM57.5462 36.2781L55.0303 37.9122L56.6954 40.476L59.2274 38.7628L57.5462 36.2781ZM53.3062 20.6855L50.3469 21.178L50.7386 23.5319L53.1203 23.6797L53.3062 20.6855ZM29.7395 19.8229C30.3637 19.7391 31.0021 19.6957 31.6521 19.6957V13.6957C30.7344 13.6957 29.8295 13.757 28.9415 13.8762L29.7395 19.8229ZM31.6521 19.6957C38.7003 19.6957 44.5558 24.8274 45.6759 31.5583L51.5945 30.5734C50.0008 20.9963 41.682 13.6957 31.6521 13.6957V19.6957ZM48.4493 34.0601C51.2015 34.2309 53.6048 35.7173 55.0303 37.9122L60.0622 34.6441C57.641 30.9162 53.5406 28.3646 48.8211 28.0716L48.4493 34.0601ZM59.2274 38.7628C62.2845 36.6944 64.3044 33.1856 64.3044 29.204H58.3044C58.3044 31.1104 57.3432 32.7934 55.8651 33.7934L59.2274 38.7628ZM64.3044 29.204C64.3044 23.0759 59.5275 18.0659 53.492 17.6913L53.1203 23.6797C56.0123 23.8593 58.3044 26.2651 58.3044 29.204H64.3044ZM56.2655 20.193C55.0197 12.7067 48.5181 7 40.6778 7V13C45.5365 13 49.5747 16.5378 50.3469 21.178L56.2655 20.193ZM40.6778 7C34.5988 7 29.3266 10.4333 26.6855 15.4526L31.9954 18.2465C33.6401 15.1207 36.9137 13 40.6778 13V7Z" fill="white" mask="url(#path-3-outside-2_685_1908)"/>
</svg>
