<svg width="64" height="64" viewBox="0 0 64 64" fill="none" xmlns="http://www.w3.org/2000/svg">
<path fill-rule="evenodd" clip-rule="evenodd" d="M54.077 38C59.005 38 63 34.005 63 29.0769C63 24.3374 59.3049 20.4609 54.6383 20.1712C53.5835 13.8324 48.074 9 41.4359 9C35.8883 9 31.1289 12.3751 29.0992 17.1839C28.9981 17.181 28.8967 17.1795 28.7949 17.1795C23.0455 17.1795 18.3846 21.8403 18.3846 27.5897C18.3846 33.3392 23.0455 38 28.7949 38C28.797 38 28.7991 38 28.8013 38L54.077 38Z" fill="#333333"/>
<path fill-rule="evenodd" clip-rule="evenodd" d="M49 55C55.6274 55 61 49.6274 61 43C61 36.6262 56.0307 31.413 49.7551 31.0234C48.3365 22.4987 40.9272 16 32.0001 16C24.5395 16 18.139 20.5389 15.4094 27.0059C15.2734 27.002 15.1369 27 15 27C7.26801 27 1 33.268 1 41C1 48.732 7.26801 55 15 55C15.0049 55 15.0099 55 15.0148 55L49 55Z" fill="white"/>
</svg>
