<svg width="64" height="64" viewBox="0 0 64 64" fill="none" xmlns="http://www.w3.org/2000/svg">
<mask id="path-1-inside-1_685_1869" fill="white">
<path d="M59 32C59 46.9117 46.9117 59 32 59C17.0883 59 5 46.9117 5 32C5 17.0883 17.0883 5 32 5C46.9117 5 59 17.0883 59 32Z"/>
</mask>
<path d="M55 32C55 44.7025 44.7025 55 32 55V63C49.1208 63 63 49.1208 63 32H55ZM32 55C19.2975 55 9 44.7025 9 32H1C1 49.1208 14.8792 63 32 63V55ZM9 32C9 19.2975 19.2975 9 32 9V1C14.8792 1 1 14.8792 1 32H9ZM32 9C44.7025 9 55 19.2975 55 32H63C63 14.8792 49.1208 1 32 1V9Z" fill="#FCFCFC" mask="url(#path-1-inside-1_685_1869)"/>
</svg>
