<svg width="64" height="64" viewBox="0 0 64 64" fill="none" xmlns="http://www.w3.org/2000/svg">
<path fill-rule="evenodd" clip-rule="evenodd" d="M32.0602 15.326C25.0586 15.8322 19.1491 20.2908 16.5403 26.4876C16.4022 26.4837 16.2636 26.4817 16.1244 26.4817C14.2899 26.4817 12.5364 26.8299 10.9263 27.4641C10.3754 25.2063 10.4487 22.8222 11.1651 20.5755C12.1569 17.465 14.3052 14.8569 17.1641 13.2923C20.023 11.7278 23.373 11.3269 26.5188 12.173C28.6206 12.7382 30.5234 13.8311 32.0602 15.326ZM36.8963 15.6138C34.7134 12.2192 31.3472 9.75365 27.4468 8.70466C23.4118 7.61949 19.115 8.13363 15.4481 10.1404C11.7812 12.1471 9.02575 15.4924 7.75359 19.482C6.73558 22.6745 6.72994 26.0833 7.70384 29.2484C4.18537 31.8442 1.90222 36.0253 1.90222 40.7409C1.90222 48.6161 8.26973 55.0002 16.1244 55.0002L16.1395 55.0002L50.6641 55.0001C57.3968 55.0001 62.8546 49.5281 62.8546 42.7779C62.8546 36.2861 57.8065 30.9764 51.4312 30.5795C50.1804 23.0437 44.3452 17.0622 36.8963 15.6138ZM48.4717 31.0707L48.8625 33.4254L51.2448 33.5737C56.0419 33.8723 59.8546 37.8738 59.8546 42.7779C59.8546 47.8786 55.7326 52.0001 50.6641 52.0001L16.1395 52.0002L16.1296 52.0002L16.1244 52.0002C9.93393 52.0002 4.90222 46.9666 4.90222 40.7409C4.90222 34.5152 9.93393 29.4817 16.1244 29.4817C16.2348 29.4817 16.3446 29.4832 16.454 29.4864L18.508 29.5455L19.3053 27.6517C21.6278 22.1348 27.068 18.2779 33.3944 18.2779C40.9663 18.2779 47.266 23.8063 48.4717 31.0707Z" fill="#FCFCFC"/>
</svg>
