<svg width="64" height="64" viewBox="0 0 64 64" fill="none" xmlns="http://www.w3.org/2000/svg">
<path fill-rule="evenodd" clip-rule="evenodd" d="M24.2196 5C24.2196 4.44772 24.6673 4 25.2196 4H25.2514C25.8036 4 26.2514 4.44772 26.2514 5V7.07407C26.2514 7.62636 25.8036 8.07407 25.2514 8.07407H25.2196C24.6673 8.07407 24.2196 7.62636 24.2196 7.07407V5ZM34.0601 19.326C27.0585 19.8322 21.1491 24.2908 18.5403 30.4876C18.4021 30.4837 18.2635 30.4817 18.1244 30.4817C16.2898 30.4817 14.5364 30.8299 12.9262 31.4641C12.3753 29.2063 12.4486 26.8222 13.165 24.5755C14.1569 21.465 16.3052 18.8569 19.1641 17.2923C22.0229 15.7278 25.3729 15.3269 28.5188 16.173C30.6205 16.7382 32.5233 17.8311 34.0601 19.326ZM38.8962 19.6138C36.7134 16.2192 33.3471 13.7536 29.4467 12.7047C25.4117 11.6195 21.115 12.1336 17.4481 14.1404C13.7811 16.1471 11.0257 19.4924 9.75353 23.482C8.73552 26.6745 8.72989 30.0833 9.70378 33.2484C6.18532 35.8442 3.90217 40.0253 3.90217 44.7409C3.90217 52.6161 10.2697 59.0002 18.1244 59.0002L18.1394 59.0002L52.6641 59.0001C59.3967 59.0001 64.8546 53.5281 64.8546 46.7779C64.8546 40.2861 59.8064 34.9764 53.4312 34.5795C52.1804 27.0437 46.3451 21.0622 38.8962 19.6138ZM50.4717 35.0707L50.8625 37.4254L53.2448 37.5737C58.0419 37.8723 61.8546 41.8738 61.8546 46.7779C61.8546 51.8786 57.7325 56.0001 52.6641 56.0001L18.1394 56.0002L18.1296 56.0002L18.1244 56.0002C11.9339 56.0002 6.90217 50.9666 6.90217 44.7409C6.90217 38.5152 11.9339 33.4817 18.1244 33.4817C18.2347 33.4817 18.3446 33.4832 18.4539 33.4864L20.5079 33.5455L21.3053 31.6517C23.6278 26.1348 29.068 22.2779 35.3943 22.2779C42.9663 22.2779 49.2659 27.8063 50.4717 35.0707ZM0.85454 28.463C0.85454 29.0152 1.30226 29.463 1.85454 29.463H3.91803C4.47032 29.463 4.91803 29.0152 4.91803 28.463V28.4259C4.91803 27.8736 4.47032 27.4259 3.91803 27.4259H1.85454C1.30225 27.4259 0.85454 27.8736 0.85454 28.4259V28.463ZM7.98344 12.5879C7.59343 12.1969 7.59343 11.5629 7.98344 11.1719L8.00773 11.1475C8.39775 10.7565 9.03009 10.7565 9.4201 11.1475L10.8811 12.6123C11.2711 13.0033 11.2711 13.6373 10.8811 14.0283L10.8568 14.0527C10.4668 14.4437 9.83441 14.4437 9.44439 14.0527L7.98344 12.5879ZM39.6143 14.0525C40.0043 14.4435 40.6366 14.4435 41.0266 14.0525L42.4876 12.5877C42.8776 12.1967 42.8776 11.5627 42.4876 11.1717L42.4633 11.1473C42.0733 10.7563 41.4409 10.7563 41.0509 11.1473L39.59 12.6121C39.2 13.0031 39.2 13.6371 39.59 14.0281L39.6143 14.0525Z" fill="#FCFCFC"/>
</svg>
