<svg width="64" height="64" viewBox="0 0 64 64" fill="none" xmlns="http://www.w3.org/2000/svg">
<path d="M33.3334 22C33.3334 29.3638 27.3638 35.3333 20 35.3333C12.6362 35.3333 6.66669 29.3638 6.66669 22C6.66669 14.6362 12.6362 8.66667 20 8.66667C27.3638 8.66667 33.3334 14.6362 33.3334 22Z" fill="#FCFCFC"/>
<path fill-rule="evenodd" clip-rule="evenodd" d="M50 55C56.6274 55 62 49.6274 62 43C62 36.6262 57.0307 31.413 50.7551 31.0234C49.3365 22.4987 41.9272 16 33.0001 16C25.5395 16 19.139 20.5389 16.4094 27.0059C16.2734 27.002 16.1369 27 16 27C8.26801 27 2 33.268 2 41C2 48.732 8.26801 55 16 55C16.0049 55 16.0099 55 16.0148 55L50 55Z" fill="#333333"/>
</svg>
