<svg width="64" height="64" viewBox="0 0 64 64" fill="none" xmlns="http://www.w3.org/2000/svg">
<path fill-rule="evenodd" clip-rule="evenodd" d="M20.1667 5.83333C20.1667 5.3731 20.5398 5 21 5C21.4603 5 21.8334 5.3731 21.8334 5.83333V7.5C21.8334 7.96024 21.4603 8.33333 21 8.33333C20.5398 8.33333 20.1667 7.96024 20.1667 7.5V5.83333ZM34.3334 25C34.3334 32.3638 28.3638 38.3333 21 38.3333C13.6362 38.3333 7.66671 32.3638 7.66671 25C7.66671 17.6362 13.6362 11.6667 21 11.6667C28.3638 11.6667 34.3334 17.6362 34.3334 25ZM21 41.6667C20.5398 41.6667 20.1667 42.0398 20.1667 42.5V44.1667C20.1667 44.6269 20.5398 45 21 45C21.4603 45 21.8334 44.6269 21.8334 44.1667V42.5C21.8334 42.0398 21.4603 41.6667 21 41.6667ZM1.83333 25.8333C1.3731 25.8333 1 25.4602 1 25C1 24.5398 1.3731 24.1667 1.83333 24.1667H3.5C3.96024 24.1667 4.33333 24.5398 4.33333 25C4.33333 25.4602 3.96024 25.8333 3.5 25.8333H1.83333ZM37.6667 25C37.6667 25.4602 38.0398 25.8333 38.5 25.8333H40.1667C40.6269 25.8333 41 25.4602 41 25C41 24.5398 40.6269 24.1667 40.1667 24.1667H38.5C38.0398 24.1667 37.6667 24.5398 37.6667 25ZM6.85787 12.0364C6.53244 11.7109 6.53244 11.1833 6.85787 10.8579C7.18331 10.5324 7.71095 10.5324 8.03639 10.8579L9.2149 12.0364C9.54033 12.3618 9.54033 12.8894 9.2149 13.2149C8.88946 13.5403 8.36182 13.5403 8.03639 13.2149L6.85787 12.0364ZM32.785 36.7851C32.4596 37.1106 32.4596 37.6382 32.785 37.9636L33.9635 39.1421C34.289 39.4676 34.8166 39.4676 35.1421 39.1421C35.4675 38.8167 35.4675 38.2891 35.1421 37.9636L33.9635 36.7851C33.6381 36.4597 33.1105 36.4597 32.785 36.7851ZM8.03637 39.1421C7.71093 39.4676 7.18329 39.4676 6.85786 39.1421C6.53242 38.8167 6.53242 38.2891 6.85786 37.9636L8.03637 36.7851C8.3618 36.4597 8.88944 36.4597 9.21488 36.7851C9.54032 37.1105 9.54032 37.6382 9.21488 37.9636L8.03637 39.1421ZM32.7851 13.2149C33.1105 13.5403 33.6381 13.5403 33.9636 13.2149L35.1421 12.0364C35.4675 11.7109 35.4675 11.1833 35.1421 10.8579C34.8167 10.5324 34.289 10.5324 33.9636 10.8579L32.7851 12.0364C32.4596 12.3618 32.4596 12.8894 32.7851 13.2149Z" fill="#FBBC04"/>
<path fill-rule="evenodd" clip-rule="evenodd" d="M51 58C57.6274 58 63 52.6274 63 46C63 39.6262 58.0307 34.413 51.7551 34.0234C50.3365 25.4987 42.9272 19 34.0001 19C26.5395 19 20.139 23.5389 17.4094 30.0059C17.2734 30.002 17.1369 30 17 30C9.26801 30 3 36.268 3 44C3 51.732 9.26801 58 17 58C17.0049 58 17.0099 58 17.0148 58L51 58Z" fill="white"/>
</svg>
