<svg width="64" height="64" viewBox="0 0 64 64" fill="none" xmlns="http://www.w3.org/2000/svg">
<line x1="24" y1="44" x2="40" y2="44" stroke="white" stroke-width="4" stroke-linecap="round"/>
<line x1="11" y1="52" x2="53" y2="52" stroke="white" stroke-width="4" stroke-linecap="round"/>
<line x1="10" y1="60" x2="55" y2="60" stroke="white" stroke-width="4" stroke-linecap="round"/>
<mask id="path-4-inside-1_698_2188" fill="white">
<path fill-rule="evenodd" clip-rule="evenodd" d="M50 40C56.6274 40 62 34.6274 62 28C62 21.6262 57.0307 16.413 50.7551 16.0234C49.3365 7.49874 41.9272 1 33.0001 1C25.5395 1 19.139 5.53888 16.4094 12.0059C16.2734 12.002 16.1369 12 16 12C8.26801 12 2 18.268 2 26C2 33.732 8.26801 40 16 40C16.0049 40 16.0099 40 16.0148 40L50 40Z"/>
</mask>
<path d="M50 40V37H50L50 40ZM50.7551 16.0234L47.7958 16.5158L48.1875 18.8697L50.5692 19.0176L50.7551 16.0234ZM16.4094 12.0059L16.3233 15.0047L18.3751 15.0636L19.1733 13.1725L16.4094 12.0059ZM16.0148 40V43H16.0148L16.0148 40ZM59 28C59 32.9706 54.9706 37 50 37V43C58.2843 43 65 36.2843 65 28H59ZM50.5692 19.0176C55.2731 19.3097 59 23.2208 59 28H65C65 20.0316 58.7884 13.5164 50.941 13.0291L50.5692 19.0176ZM33.0001 4C40.4364 4 46.614 9.41428 47.7958 16.5158L53.7144 15.5309C52.059 5.58319 43.418 -2 33.0001 -2V4ZM19.1733 13.1725C21.4505 7.77736 26.7876 4 33.0001 4V-2C24.2914 -2 16.8276 3.3004 13.6455 10.8393L19.1733 13.1725ZM16 15C16.1082 15 16.216 15.0016 16.3233 15.0047L16.4955 9.00714C16.3308 9.00241 16.1657 9.00003 16 9.00003V15ZM5 26C5 19.9249 9.92487 15 16 15V9.00003C6.61116 9.00003 -1 16.6112 -1 26H5ZM16 37C9.92487 37 5 32.0752 5 26H-1C-1 35.3889 6.61116 43 16 43V37ZM16.0148 37C16.011 37 16.0073 37 16.0051 37C16.0024 37 16.0011 37 16 37V43C16.0038 43 16.0074 43 16.0097 43C16.0124 43 16.0137 43 16.0148 43V37ZM50 37L16.0148 37L16.0148 43L50 43L50 37Z" fill="#FCFCFC" mask="url(#path-4-inside-1_698_2188)"/>
</svg>
