<svg width="64" height="64" viewBox="0 0 200 200" fill="none" xmlns="http://www.w3.org/2000/svg">
<path fill-rule="evenodd" clip-rule="evenodd" d="M156.25 128.125C176.961 128.125 193.75 111.336 193.75 90.625C193.75 70.7069 178.221 54.4157 158.61 53.198C154.177 26.5585 131.023 6.25 103.125 6.25C79.8109 6.25 59.8094 20.434 51.2793 40.6434C50.8544 40.6312 50.4279 40.6251 50 40.6251C25.8375 40.6251 6.25 60.2126 6.25 84.3751C6.25 108.538 25.8375 128.125 50 128.125C50.0123 128.125 50.0246 128.125 50.0369 128.125L156.25 128.125Z" fill="white"/>
<path fill-rule="evenodd" clip-rule="evenodd" d="M34.375 119.75C34.375 119.198 34.8227 118.75 35.375 118.75H39.625C40.1773 118.75 40.625 119.198 40.625 119.75V136.5C40.625 137.052 40.1773 137.5 39.625 137.5H35.375C34.8227 137.5 34.375 137.052 34.375 136.5V119.75ZM7.25 128.125C6.69772 128.125 6.25 128.573 6.25 129.125V145.875C6.25 146.427 6.69772 146.875 7.25 146.875H11.5C12.0523 146.875 12.5 146.427 12.5 145.875V129.125C12.5 128.573 12.0523 128.125 11.5 128.125H7.25ZM192.75 128.125C193.302 128.125 193.75 128.573 193.75 129.125V145.875C193.75 146.427 193.302 146.875 192.75 146.875H188.5C187.948 146.875 187.5 146.427 187.5 145.875V129.125C187.5 128.573 187.948 128.125 188.5 128.125H192.75ZM164.625 118.75C165.177 118.75 165.625 119.198 165.625 119.75V136.5C165.625 137.052 165.177 137.5 164.625 137.5H160.375C159.823 137.5 159.375 137.052 159.375 136.5V119.75C159.375 119.198 159.823 118.75 160.375 118.75H164.625ZM21.875 147.875C21.875 147.323 22.3227 146.875 22.875 146.875H27.125C27.6773 146.875 28.125 147.323 28.125 147.875V164.625C28.125 165.177 27.6773 165.625 27.125 165.625H22.875C22.3227 165.625 21.875 165.177 21.875 164.625V147.875ZM177.125 146.875C177.677 146.875 178.125 147.323 178.125 147.875V164.625C178.125 165.177 177.677 165.625 177.125 165.625H172.875C172.323 165.625 171.875 165.177 171.875 164.625V147.875C171.875 147.323 172.323 146.875 172.875 146.875H177.125Z" fill="#63B4FF"/>
</svg>
