<svg width="64" height="64" viewBox="0 0 200 200" fill="none" xmlns="http://www.w3.org/2000/svg">
<mask id="path-1-inside-1_142_1707" fill="white">
<path fill-rule="evenodd" clip-rule="evenodd" d="M160 131.25C182.091 131.25 200 113.169 200 90.8653C200 69.415 183.436 51.8707 162.517 50.5594C157.788 21.8707 133.091 0 103.334 0C78.4649 0 57.13 15.2751 48.0313 37.0391C47.578 37.0259 47.1231 37.0193 46.6667 37.0193C20.8934 37.0193 0 58.1136 0 84.1347C0 110.156 20.8934 131.25 46.6667 131.25L160 131.25Z"/>
</mask>
<path d="M160 131.25V121.25H160L160 131.25ZM162.517 50.5594L152.65 52.1857L153.945 60.0417L161.891 60.5398L162.517 50.5594ZM48.0313 37.0391L47.7415 47.0349L54.6079 47.2339L57.2575 40.8962L48.0313 37.0391ZM46.6667 131.25V141.25H46.6667L46.6667 131.25ZM190 90.8653C190 107.737 176.479 121.25 160 121.25V141.25C187.704 141.25 210 118.602 210 90.8653H190ZM161.891 60.5398C177.492 61.5177 190 74.646 190 90.8653H210C210 64.184 189.38 42.2236 163.143 40.579L161.891 60.5398ZM103.334 10C128.047 10 148.693 28.1787 152.65 52.1857L172.384 48.9331C166.884 15.5627 138.135 -10 103.334 -10V10ZM57.2575 40.8962C64.8728 22.6805 82.6812 10 103.334 10V-10C74.2487 -10 49.3873 7.86961 38.8051 33.1819L57.2575 40.8962ZM46.6667 47.0193C47.0264 47.0193 47.3847 47.0245 47.7415 47.0349L48.3211 27.0433C47.7713 27.0273 47.2198 27.0193 46.6667 27.0193V47.0193ZM10 84.1347C10 63.546 26.5062 47.0193 46.6667 47.0193V27.0193C15.2805 27.0193 -10 52.6811 -10 84.1347H10ZM46.6667 121.25C26.5062 121.25 10 104.723 10 84.1347H-10C-10 115.588 15.2805 141.25 46.6667 141.25V121.25ZM160 121.25L46.6667 121.25L46.6667 141.25L160 141.25L160 121.25Z" fill="#FCFCFC" mask="url(#path-1-inside-1_142_1707)"/>
<path fill-rule="evenodd" clip-rule="evenodd" d="M30 122.875C30 122.323 30.4477 121.875 31 121.875H35.6667C36.219 121.875 36.6667 122.323 36.6667 122.875V140.875C36.6667 141.427 36.219 141.875 35.6667 141.875H31C30.4477 141.875 30 141.427 30 140.875V122.875ZM1 131.875C0.447715 131.875 0 132.323 0 132.875V150.875C0 151.427 0.447714 151.875 0.999999 151.875H5.66667C6.21895 151.875 6.66667 151.427 6.66667 150.875V132.875C6.66667 132.323 6.21895 131.875 5.66667 131.875H1ZM199 131.875C199.552 131.875 200 132.323 200 132.875V150.875C200 151.427 199.552 151.875 199 151.875H194.333C193.781 151.875 193.333 151.427 193.333 150.875V132.875C193.333 132.323 193.781 131.875 194.333 131.875H199ZM169 121.875C169.552 121.875 170 122.323 170 122.875V140.875C170 141.427 169.552 141.875 169 141.875H164.333C163.781 141.875 163.333 141.427 163.333 140.875V122.875C163.333 122.323 163.781 121.875 164.333 121.875H169ZM16.6667 152.875C16.6667 152.323 17.1144 151.875 17.6667 151.875H22.3333C22.8856 151.875 23.3333 152.323 23.3333 152.875V170.875C23.3333 171.427 22.8856 171.875 22.3333 171.875H17.6667C17.1144 171.875 16.6667 171.427 16.6667 170.875V152.875ZM182.333 151.875C182.886 151.875 183.333 152.323 183.333 152.875V170.875C183.333 171.427 182.886 171.875 182.333 171.875H177.667C177.114 171.875 176.667 171.427 176.667 170.875V152.875C176.667 152.323 177.114 151.875 177.667 151.875H182.333Z" fill="#FCFCFC"/>
</svg>
