<svg width="64" height="64" viewBox="0 0 64 64" fill="none" xmlns="http://www.w3.org/2000/svg">
<mask id="path-1-inside-1_685_1863" fill="white">
<path fill-rule="evenodd" clip-rule="evenodd" d="M50 51C56.6274 51 62 45.6274 62 39C62 32.6262 57.0307 27.413 50.7551 27.0234C49.3365 18.4987 41.9272 12 33.0001 12C25.5395 12 19.139 16.5389 16.4094 23.0059C16.2734 23.002 16.1369 23 16 23C8.26801 23 2 29.268 2 37C2 44.732 8.26801 51 16 51C16.0049 51 16.0099 51 16.0148 51L50 51Z"/>
</mask>
<path d="M50 51V48H50L50 51ZM50.7551 27.0234L47.7958 27.5158L48.1875 29.8697L50.5692 30.0176L50.7551 27.0234ZM16.4094 23.0059L16.3233 26.0047L18.3751 26.0636L19.1733 24.1725L16.4094 23.0059ZM16.0148 51V54H16.0148L16.0148 51ZM59 39C59 43.9706 54.9706 48 50 48V54C58.2843 54 65 47.2843 65 39H59ZM50.5692 30.0176C55.2731 30.3097 59 34.2208 59 39H65C65 31.0316 58.7884 24.5164 50.941 24.0291L50.5692 30.0176ZM33.0001 15C40.4364 15 46.614 20.4143 47.7958 27.5158L53.7144 26.5309C52.059 16.5832 43.418 9 33.0001 9V15ZM19.1733 24.1725C21.4505 18.7774 26.7876 15 33.0001 15V9C24.2914 9 16.8276 14.3004 13.6455 21.8393L19.1733 24.1725ZM16 26C16.1082 26 16.216 26.0016 16.3233 26.0047L16.4955 20.0071C16.3308 20.0024 16.1657 20 16 20V26ZM5 37C5 30.9249 9.92487 26 16 26V20C6.61116 20 -1 27.6112 -1 37H5ZM16 48C9.92487 48 5 43.0752 5 37H-1C-1 46.3889 6.61116 54 16 54V48ZM16.0148 48C16.011 48 16.0073 48 16.0051 48C16.0024 48 16.0011 48 16 48V54C16.0038 54 16.0074 54 16.0097 54C16.0124 54 16.0137 54 16.0148 54V48ZM50 48L16.0148 48L16.0148 54L50 54L50 48Z" fill="#FCFCFC" mask="url(#path-1-inside-1_685_1863)"/>
</svg>
