<svg width="64" height="64" viewBox="0 0 200 200" fill="none" xmlns="http://www.w3.org/2000/svg">
<path fill-rule="evenodd" clip-rule="evenodd" d="M156.25 128.125C176.961 128.125 193.75 111.336 193.75 90.625C193.75 70.7069 178.221 54.4157 158.61 53.198C154.177 26.5585 131.023 6.25 103.125 6.25C79.8109 6.25 59.8094 20.434 51.2793 40.6434C50.8544 40.6312 50.4279 40.6251 50 40.6251C25.8375 40.6251 6.25 60.2126 6.25 84.3751C6.25 108.538 25.8375 128.125 50 128.125C50.0123 128.125 50.0246 128.125 50.0369 128.125L156.25 128.125Z" fill="white"/>
<path d="M168.525 152.035C168.472 152.62 168.933 153.125 169.521 153.125H174.229C174.817 153.125 175.278 152.62 175.225 152.035L174.828 147.636C174.751 146.788 175.702 146.238 176.399 146.728L180.025 149.279C180.508 149.619 181.179 149.468 181.471 148.955L183.84 144.779C184.128 144.272 183.922 143.626 183.393 143.379L179.425 141.532C178.655 141.173 178.655 140.077 179.425 139.718L183.393 137.871C183.922 137.624 184.128 136.978 183.84 136.471L181.471 132.295C181.179 131.782 180.508 131.631 180.025 131.971L176.399 134.522C175.702 135.012 174.751 134.462 174.828 133.614L175.225 129.215C175.278 128.63 174.817 128.125 174.229 128.125H169.521C168.933 128.125 168.472 128.63 168.525 129.215L168.922 133.614C168.999 134.462 168.048 135.012 167.351 134.522L163.725 131.971C163.242 131.631 162.571 131.782 162.279 132.295L159.91 136.471C159.622 136.978 159.828 137.624 160.357 137.871L164.325 139.718C165.095 140.077 165.095 141.173 164.325 141.532L160.357 143.379C159.828 143.626 159.622 144.272 159.91 144.779L162.279 148.955C162.571 149.468 163.242 149.619 163.725 149.279L167.351 146.728C168.048 146.238 168.999 146.788 168.922 147.636L168.525 152.035Z" fill="#63B4FF"/>
<path d="M184.15 186.41C184.097 186.995 184.558 187.5 185.146 187.5H189.854C190.442 187.5 190.903 186.995 190.85 186.41L190.453 182.011C190.376 181.163 191.327 180.613 192.024 181.103L195.65 183.654C196.133 183.994 196.804 183.843 197.096 183.33L199.465 179.154C199.753 178.647 199.547 178.001 199.018 177.754L195.05 175.907C194.28 175.548 194.28 174.452 195.05 174.093L199.018 172.246C199.547 171.999 199.753 171.353 199.465 170.846L197.096 166.67C196.804 166.157 196.133 166.006 195.65 166.346L192.024 168.897C191.327 169.387 190.376 168.837 190.453 167.989L190.85 163.59C190.903 163.005 190.442 162.5 189.854 162.5H185.146C184.558 162.5 184.097 163.005 184.15 163.59L184.547 167.989C184.624 168.837 183.673 169.387 182.976 168.897L179.35 166.346C178.867 166.006 178.196 166.157 177.904 166.67L175.535 170.846C175.247 171.353 175.453 171.999 175.982 172.246L179.95 174.093C180.72 174.452 180.72 175.548 179.95 175.907L175.982 177.754C175.453 178.001 175.247 178.647 175.535 179.154L177.904 183.33C178.196 183.843 178.867 183.994 179.35 183.654L182.976 181.103C183.673 180.613 184.624 181.163 184.547 182.011L184.15 186.41Z" fill="#63B4FF"/>
<path d="M24.7751 152.035C24.7223 152.62 25.1833 153.125 25.7711 153.125H30.4789C31.0667 153.125 31.5277 152.62 31.4749 152.035L31.0777 147.636C31.0011 146.788 31.9524 146.238 32.649 146.728L36.2755 149.279C36.7585 149.619 37.4291 149.468 37.7206 148.955L40.0901 144.779C40.3783 144.272 40.1719 143.626 39.6426 143.379L35.675 141.532C34.9045 141.173 34.9045 140.077 35.675 139.718L39.6426 137.871C40.1719 137.624 40.3783 136.978 40.0901 136.471L37.7206 132.295C37.4291 131.782 36.7585 131.631 36.2755 131.971L32.649 134.522C31.9524 135.012 31.0011 134.462 31.0777 133.614L31.4749 129.215C31.5277 128.63 31.0667 128.125 30.4789 128.125H25.7711C25.1833 128.125 24.7223 128.63 24.7751 129.215L25.1723 133.614C25.2489 134.462 24.2976 135.012 23.601 134.522L19.9745 131.971C19.4915 131.631 18.8209 131.782 18.5294 132.295L16.1599 136.471C15.8717 136.978 16.0781 137.624 16.6074 137.871L20.575 139.718C21.3455 140.077 21.3455 141.173 20.575 141.532L16.6074 143.379C16.0781 143.626 15.8717 144.272 16.1599 144.779L18.5294 148.955C18.8209 149.468 19.4915 149.619 19.9745 149.279L23.601 146.728C24.2976 146.238 25.2489 146.788 25.1723 147.636L24.7751 152.035Z" fill="#63B4FF"/>
<path d="M9.15013 186.41C9.09728 186.995 9.55829 187.5 10.1461 187.5H14.8539C15.4417 187.5 15.9027 186.995 15.8499 186.41L15.4527 182.011C15.3761 181.163 16.3274 180.613 17.024 181.103L20.6505 183.654C21.1335 183.994 21.8041 183.843 22.0956 183.33L24.4651 179.154C24.7533 178.647 24.5469 178.001 24.0176 177.754L20.05 175.907C19.2795 175.548 19.2795 174.452 20.05 174.093L24.0176 172.246C24.5469 171.999 24.7533 171.353 24.4651 170.846L22.0956 166.67C21.8041 166.157 21.1335 166.006 20.6505 166.346L17.024 168.897C16.3274 169.387 15.3761 168.837 15.4527 167.989L15.8499 163.59C15.9027 163.005 15.4417 162.5 14.8539 162.5H10.1461C9.55829 162.5 9.09728 163.005 9.15013 163.59L9.5473 167.989C9.62389 168.837 8.67262 169.387 7.97598 168.897L4.34951 166.346C3.86654 166.006 3.19588 166.157 2.90443 166.67L0.53488 170.846C0.246684 171.353 0.453088 171.999 0.982421 172.246L4.95004 174.093C5.72047 174.452 5.72048 175.548 4.95004 175.907L0.982423 177.754C0.453089 178.001 0.246685 178.647 0.534882 179.154L2.90443 183.33C3.19588 183.843 3.86654 183.994 4.34951 183.654L7.97598 181.103C8.67262 180.613 9.62389 181.163 9.5473 182.011L9.15013 186.41Z" fill="#63B4FF"/>
</svg>
