<svg width="64" height="64" viewBox="0 0 200 200" fill="none" xmlns="http://www.w3.org/2000/svg">
<mask id="path-1-inside-1_142_1708" fill="white">
<path fill-rule="evenodd" clip-rule="evenodd" d="M160 131.25C182.091 131.25 200 113.169 200 90.8653C200 69.415 183.436 51.8707 162.517 50.5594C157.788 21.8707 133.091 0 103.334 0C78.4649 0 57.13 15.2751 48.0313 37.0391C47.578 37.0259 47.1231 37.0193 46.6667 37.0193C20.8934 37.0193 0 58.1136 0 84.1347C0 110.156 20.8934 131.25 46.6667 131.25L160 131.25Z"/>
</mask>
<path d="M160 131.25V121.25H160L160 131.25ZM162.517 50.5594L152.65 52.1857L153.945 60.0417L161.891 60.5398L162.517 50.5594ZM48.0313 37.0391L47.7415 47.0349L54.6079 47.2339L57.2575 40.8962L48.0313 37.0391ZM46.6667 131.25V141.25H46.6667L46.6667 131.25ZM190 90.8653C190 107.737 176.479 121.25 160 121.25V141.25C187.704 141.25 210 118.602 210 90.8653H190ZM161.891 60.5398C177.492 61.5177 190 74.646 190 90.8653H210C210 64.184 189.38 42.2236 163.143 40.579L161.891 60.5398ZM103.334 10C128.047 10 148.693 28.1787 152.65 52.1857L172.384 48.9331C166.884 15.5627 138.135 -10 103.334 -10V10ZM57.2575 40.8962C64.8728 22.6805 82.6812 10 103.334 10V-10C74.2487 -10 49.3873 7.86961 38.8051 33.1819L57.2575 40.8962ZM46.6667 47.0193C47.0264 47.0193 47.3847 47.0245 47.7415 47.0349L48.3211 27.0433C47.7713 27.0273 47.2198 27.0193 46.6667 27.0193V47.0193ZM10 84.1347C10 63.546 26.5062 47.0193 46.6667 47.0193V27.0193C15.2805 27.0193 -10 52.6811 -10 84.1347H10ZM46.6667 121.25C26.5062 121.25 10 104.723 10 84.1347H-10C-10 115.588 15.2805 141.25 46.6667 141.25V121.25ZM160 121.25L46.6667 121.25L46.6667 141.25L160 141.25L160 121.25Z" fill="#FCFCFC" mask="url(#path-1-inside-1_142_1708)"/>
<path d="M168.525 155.16C168.472 155.745 168.933 156.25 169.521 156.25H174.229C174.817 156.25 175.278 155.745 175.225 155.16L174.828 150.761C174.751 149.913 175.702 149.363 176.399 149.853L180.025 152.404C180.508 152.744 181.179 152.593 181.471 152.08L183.84 147.904C184.128 147.397 183.922 146.751 183.393 146.504L179.425 144.657C178.655 144.298 178.655 143.202 179.425 142.843L183.393 140.996C183.922 140.749 184.128 140.103 183.84 139.596L181.471 135.42C181.179 134.907 180.508 134.756 180.025 135.096L176.399 137.647C175.702 138.137 174.751 137.587 174.828 136.739L175.225 132.34C175.278 131.755 174.817 131.25 174.229 131.25H169.521C168.933 131.25 168.472 131.755 168.525 132.34L168.922 136.739C168.999 137.587 168.048 138.137 167.351 137.647L163.725 135.096C163.242 134.756 162.571 134.907 162.279 135.42L159.91 139.596C159.622 140.103 159.828 140.749 160.357 140.996L164.325 142.843C165.095 143.202 165.095 144.298 164.325 144.657L160.357 146.504C159.828 146.751 159.622 147.397 159.91 147.904L162.279 152.08C162.571 152.593 163.242 152.744 163.725 152.404L167.351 149.853C168.048 149.363 168.999 149.913 168.922 150.761L168.525 155.16Z" fill="#FCFCFC"/>
<path d="M184.15 189.535C184.097 190.12 184.558 190.625 185.146 190.625H189.854C190.442 190.625 190.903 190.12 190.85 189.535L190.453 185.136C190.376 184.288 191.327 183.738 192.024 184.228L195.65 186.779C196.133 187.119 196.804 186.968 197.096 186.455L199.465 182.279C199.753 181.772 199.547 181.126 199.018 180.879L195.05 179.032C194.28 178.673 194.28 177.577 195.05 177.218L199.018 175.371C199.547 175.124 199.753 174.478 199.465 173.971L197.096 169.795C196.804 169.282 196.133 169.131 195.65 169.471L192.024 172.022C191.327 172.512 190.376 171.962 190.453 171.114L190.85 166.715C190.903 166.13 190.442 165.625 189.854 165.625H185.146C184.558 165.625 184.097 166.13 184.15 166.715L184.547 171.114C184.624 171.962 183.673 172.512 182.976 172.022L179.35 169.471C178.867 169.131 178.196 169.282 177.904 169.795L175.535 173.971C175.247 174.478 175.453 175.124 175.982 175.371L179.95 177.218C180.72 177.577 180.72 178.673 179.95 179.032L175.982 180.879C175.453 181.126 175.247 181.772 175.535 182.279L177.904 186.455C178.196 186.968 178.867 187.119 179.35 186.779L182.976 184.228C183.673 183.738 184.624 184.288 184.547 185.136L184.15 189.535Z" fill="#FCFCFC"/>
<path d="M24.7751 155.16C24.7223 155.745 25.1833 156.25 25.7711 156.25H30.4789C31.0667 156.25 31.5277 155.745 31.4749 155.16L31.0777 150.761C31.0011 149.913 31.9524 149.363 32.649 149.853L36.2755 152.404C36.7585 152.744 37.4291 152.593 37.7206 152.08L40.0901 147.904C40.3783 147.397 40.1719 146.751 39.6426 146.504L35.675 144.657C34.9045 144.298 34.9045 143.202 35.675 142.843L39.6426 140.996C40.1719 140.749 40.3783 140.103 40.0901 139.596L37.7206 135.42C37.4291 134.907 36.7585 134.756 36.2755 135.096L32.649 137.647C31.9524 138.137 31.0011 137.587 31.0777 136.739L31.4749 132.34C31.5277 131.755 31.0667 131.25 30.4789 131.25H25.7711C25.1833 131.25 24.7223 131.755 24.7751 132.34L25.1723 136.739C25.2489 137.587 24.2976 138.137 23.601 137.647L19.9745 135.096C19.4915 134.756 18.8209 134.907 18.5294 135.42L16.1599 139.596C15.8717 140.103 16.0781 140.749 16.6074 140.996L20.575 142.843C21.3455 143.202 21.3455 144.298 20.575 144.657L16.6074 146.504C16.0781 146.751 15.8717 147.397 16.1599 147.904L18.5294 152.08C18.8209 152.593 19.4915 152.744 19.9745 152.404L23.601 149.853C24.2976 149.363 25.2489 149.913 25.1723 150.761L24.7751 155.16Z" fill="#FCFCFC"/>
<path d="M9.15013 189.535C9.09728 190.12 9.55829 190.625 10.1461 190.625H14.8539C15.4417 190.625 15.9027 190.12 15.8499 189.535L15.4527 185.136C15.3761 184.288 16.3274 183.738 17.024 184.228L20.6505 186.779C21.1335 187.119 21.8041 186.968 22.0956 186.455L24.4651 182.279C24.7533 181.772 24.5469 181.126 24.0176 180.879L20.05 179.032C19.2795 178.673 19.2795 177.577 20.05 177.218L24.0176 175.371C24.5469 175.124 24.7533 174.478 24.4651 173.971L22.0956 169.795C21.8041 169.282 21.1335 169.131 20.6505 169.471L17.024 172.022C16.3274 172.512 15.3761 171.962 15.4527 171.114L15.8499 166.715C15.9027 166.13 15.4417 165.625 14.8539 165.625H10.1461C9.55829 165.625 9.09728 166.13 9.15013 166.715L9.5473 171.114C9.62389 171.962 8.67262 172.512 7.97598 172.022L4.34951 169.471C3.86654 169.131 3.19588 169.282 2.90443 169.795L0.53488 173.971C0.246684 174.478 0.453088 175.124 0.982421 175.371L4.95004 177.218C5.72047 177.577 5.72048 178.673 4.95004 179.032L0.982423 180.879C0.453089 181.126 0.246685 181.772 0.534882 182.279L2.90443 186.455C3.19588 186.968 3.86654 187.119 4.34951 186.779L7.97598 184.228C8.67262 183.738 9.62389 184.288 9.5473 185.136L9.15013 189.535Z" fill="#FCFCFC"/>
</svg>
