<svg width="64" height="64" viewBox="0 0 64 64" fill="none" xmlns="http://www.w3.org/2000/svg">
<path fill-rule="evenodd" clip-rule="evenodd" d="M30.6667 1C30.6667 0.447716 31.1144 0 31.6667 0H32.3333C32.8856 0 33.3333 0.447715 33.3333 1V4.33333C33.3333 4.88562 32.8856 5.33333 32.3333 5.33333H31.6667C31.1144 5.33333 30.6667 4.88562 30.6667 4.33333V1ZM52.6667 31.6667C52.6667 43.2646 43.2646 52.6667 31.6667 52.6667C20.0687 52.6667 10.6667 43.2646 10.6667 31.6667C10.6667 20.0687 20.0687 10.6667 31.6667 10.6667C43.2646 10.6667 52.6667 20.0687 52.6667 31.6667ZM31.6667 58.6667C31.1144 58.6667 30.6667 59.1144 30.6667 59.6667V63C30.6667 63.5523 31.1144 64 31.6667 64H32.3333C32.8856 64 33.3333 63.5523 33.3333 63V59.6667C33.3333 59.1144 32.8856 58.6667 32.3333 58.6667H31.6667ZM1 33.3333C0.447716 33.3333 0 32.8856 0 32.3333V31.6667C0 31.1144 0.447715 30.6667 1 30.6667H4.33333C4.88562 30.6667 5.33333 31.1144 5.33333 31.6667V32.3333C5.33333 32.8856 4.88562 33.3333 4.33333 33.3333H1ZM58.6667 32.3333C58.6667 32.8856 59.1144 33.3333 59.6667 33.3333H63C63.5523 33.3333 64 32.8856 64 32.3333V31.6667C64 31.1144 63.5523 30.6667 63 30.6667H59.6667C59.1144 30.6667 58.6667 31.1144 58.6667 31.6667V32.3333ZM9.13688 11.0225C8.74635 10.632 8.74635 9.99881 9.13688 9.60828L9.60828 9.13688C9.9988 8.74635 10.632 8.74635 11.0225 9.13688L13.3795 11.4939C13.77 11.8844 13.77 12.5176 13.3795 12.9081L12.9081 13.3795C12.5176 13.77 11.8844 13.77 11.4939 13.3795L9.13688 11.0225ZM50.6205 51.0919C50.23 51.4824 50.23 52.1156 50.6205 52.5061L52.9775 54.8631C53.3681 55.2536 54.0012 55.2536 54.3918 54.8631L54.8632 54.3917C55.2537 54.0012 55.2537 53.368 54.8632 52.9775L52.5061 50.6205C52.1156 50.23 51.4824 50.23 51.0919 50.6205L50.6205 51.0919ZM11.0225 54.8631C10.632 55.2537 9.99885 55.2537 9.60832 54.8631L9.13692 54.3917C8.74639 54.0012 8.74639 53.368 9.13692 52.9775L11.4939 50.6205C11.8845 50.23 12.5176 50.23 12.9082 50.6205L13.3796 51.0919C13.7701 51.4824 13.7701 52.1156 13.3796 52.5061L11.0225 54.8631ZM51.0919 13.3795C51.4824 13.77 52.1156 13.77 52.5061 13.3795L54.8631 11.0225C55.2536 10.632 55.2536 9.99881 54.8631 9.60828L54.3917 9.13688C54.0012 8.74636 53.368 8.74636 52.9775 9.13688L50.6205 11.4939C50.23 11.8844 50.23 12.5176 50.6205 12.9081L51.0919 13.3795Z" fill="#F8BC1C"/>
</svg>
