<svg width="64" height="64" viewBox="0 0 64 64" fill="none" xmlns="http://www.w3.org/2000/svg">
<path fill-rule="evenodd" clip-rule="evenodd" d="M54.077 30.4603C54.077 30.4603 54.077 30.4603 54.077 30.4603C59.0051 30.4603 63.0001 26.4019 63.0001 21.3956C63.0001 16.5808 59.3049 12.6428 54.6383 12.3485C53.5835 5.90909 48.074 1 41.4359 1C35.8883 1 31.1289 4.42863 29.0992 9.31377C28.9981 9.31082 28.8967 9.30934 28.7949 9.30934C23.0455 9.30934 18.3846 14.0441 18.3846 19.8848C18.3846 25.7255 23.0455 30.4603 28.7949 30.4603C28.797 30.4603 28.7991 30.4603 28.8012 30.4603H54.077Z" fill="#333333"/>
<path fill-rule="evenodd" clip-rule="evenodd" d="M49 47.7302L49 47.7302H15C7.26801 47.7302 1 41.3627 1 33.508C1 25.6533 7.26801 19.2857 15 19.2857C15.1369 19.2857 15.2734 19.2877 15.4094 19.2917C18.139 12.722 24.5395 8.11111 32.0001 8.11111C40.9272 8.11111 48.3365 14.713 49.7551 23.373C56.0307 23.7688 61 29.0647 61 35.5397C61 42.2723 55.6274 47.7302 49 47.7302Z" fill="white"/>
<path d="M32.68 47H30C29.4477 47 29 47.4477 29 48V54.2504C29 54.8027 29.4477 55.2504 30 55.2504H30.2823C30.9212 55.2504 31.3959 55.8414 31.2427 56.4617C30.1544 60.8665 28.5705 65 29.4385 65C30.1824 65 33.1866 57.8998 34.4432 54.8489C34.7127 54.1945 34.2298 53.4825 33.5221 53.4825H33.3375C32.6592 53.4825 32.1777 52.8215 32.3856 52.1759L33.6318 48.3066C33.8398 47.661 33.3583 47 32.68 47Z" fill="#F8BC1C"/>
</svg>
