<svg width="64" height="64" viewBox="0 0 64 64" fill="none" xmlns="http://www.w3.org/2000/svg">
<mask id="path-1-inside-1_690_2148" fill="white">
<path fill-rule="evenodd" clip-rule="evenodd" d="M15.4058 48C15.4009 48 15.3961 48 15.3913 48C7.99549 48 2 42.0045 2 34.6087C2 27.2129 7.99549 21.2174 15.3913 21.2174C15.5223 21.2174 15.6528 21.2193 15.7828 21.223C18.3938 15.0372 24.516 10.6957 31.6522 10.6957C40.1912 10.6957 47.2783 16.9118 48.6353 25.0658C54.6381 25.4385 59.3913 30.425 59.3913 36.5217C59.3913 42.861 54.2523 48 47.913 48L15.4058 48Z"/>
</mask>
<path d="M15.4058 48V51H15.4058L15.4058 48ZM15.7828 21.223L15.6967 24.2218L17.7485 24.2807L18.5467 22.3896L15.7828 21.223ZM48.6353 25.0658L45.6759 25.5583L46.0677 27.9122L48.4494 28.0601L48.6353 25.0658ZM47.913 48V45H47.913L47.913 48ZM15.4058 45C15.402 45 15.3984 45 15.3962 45C15.3935 45 15.3923 45 15.3913 45V51C15.3951 51 15.3987 51 15.4009 51C15.4035 51 15.4047 51 15.4058 51V45ZM15.3913 45C9.65235 45 5 40.3477 5 34.6087H-1C-1 43.6614 6.33864 51 15.3913 51V45ZM5 34.6087C5 28.8698 9.65235 24.2174 15.3913 24.2174V18.2174C6.33864 18.2174 -1 25.5561 -1 34.6087H5ZM15.3913 24.2174C15.4936 24.2174 15.5954 24.2189 15.6967 24.2218L15.8689 18.2243C15.7102 18.2197 15.551 18.2174 15.3913 18.2174V24.2174ZM18.5467 22.3896C20.7052 17.2757 25.7641 13.6956 31.6522 13.6956V7.69565C23.2678 7.69565 16.0823 12.7987 13.0189 20.0564L18.5467 22.3896ZM31.6522 13.6956C38.7004 13.6956 44.5558 18.8274 45.6759 25.5583L51.5946 24.5734C50.0008 14.9963 41.682 7.69565 31.6522 7.69565V13.6956ZM48.4494 28.0601C52.8805 28.3352 56.3913 32.0196 56.3913 36.5217H62.3913C62.3913 28.8305 56.3957 22.5419 48.8211 22.0716L48.4494 28.0601ZM56.3913 36.5217C56.3913 41.2041 52.5955 45 47.913 45V51C55.9092 51 62.3913 44.5179 62.3913 36.5217H56.3913ZM47.913 45L15.4058 45L15.4058 51L47.913 51L47.913 45Z" fill="#FCFCFC" mask="url(#path-1-inside-1_690_2148)"/>
<mask id="path-3-outside-2_690_2148" maskUnits="userSpaceOnUse" x="23.3405" y="1" width="41" height="34" fill="black">
<rect fill="white" x="23.3405" y="1" width="41" height="34"/>
<path fill-rule="evenodd" clip-rule="evenodd" d="M29.3405 10.8495C30.0966 10.748 30.8683 10.6957 31.6522 10.6957C40.1912 10.6957 47.2783 16.9118 48.6353 25.0658C52.3711 25.2978 55.6229 27.3167 57.5463 30.2781C59.8139 28.7439 61.3044 26.148 61.3044 23.204C61.3044 18.6705 57.7699 14.9626 53.3062 14.6855C52.2972 8.62228 47.0273 4 40.6778 4C35.7563 4 31.4834 6.77698 29.3405 10.8495Z"/>
</mask>
<path d="M29.3405 10.8495L26.6856 9.45255L23.9793 14.5958L29.7395 13.8229L29.3405 10.8495ZM48.6353 25.0658L45.6759 25.5583L46.0677 27.9122L48.4494 28.0601L48.6353 25.0658ZM57.5463 30.2781L55.0303 31.9122L56.6954 34.476L59.2274 32.7628L57.5463 30.2781ZM53.3062 14.6855L50.3469 15.178L50.7386 17.5319L53.1204 17.6797L53.3062 14.6855ZM29.7395 13.8229C30.3637 13.7391 31.0021 13.6957 31.6522 13.6957V7.69565C30.7345 7.69565 29.8295 7.75699 28.9415 7.87616L29.7395 13.8229ZM31.6522 13.6957C38.7004 13.6957 44.5558 18.8274 45.6759 25.5583L51.5946 24.5734C50.0008 14.9963 41.682 7.69565 31.6522 7.69565V13.6957ZM48.4494 28.0601C51.2015 28.2309 53.6048 29.7173 55.0303 31.9122L60.0622 28.6441C57.641 24.9162 53.5407 22.3646 48.8211 22.0716L48.4494 28.0601ZM59.2274 32.7628C62.2845 30.6944 64.3044 27.1856 64.3044 23.204H58.3044C58.3044 25.1104 57.3432 26.7934 55.8651 27.7934L59.2274 32.7628ZM64.3044 23.204C64.3044 17.0759 59.5275 12.0659 53.4921 11.6913L53.1204 17.6797C56.0123 17.8593 58.3044 20.2651 58.3044 23.204H64.3044ZM56.2655 14.193C55.0197 6.70674 48.5181 1 40.6778 1V7C45.5365 7 49.5747 10.5378 50.3469 15.178L56.2655 14.193ZM40.6778 1C34.5988 1 29.3266 4.4333 26.6856 9.45255L31.9954 12.2465C33.6401 9.12066 36.9137 7 40.6778 7V1Z" fill="#FCFCFC" mask="url(#path-3-outside-2_690_2148)"/>
<path d="M32.68 47H30C29.4477 47 29 47.4477 29 48V54.2504C29 54.8027 29.4477 55.2504 30 55.2504H30.2823C30.9212 55.2504 31.3959 55.8414 31.2427 56.4617C30.1544 60.8665 28.5705 65 29.4385 65C30.1824 65 33.1866 57.8998 34.4432 54.8489C34.7127 54.1945 34.2298 53.4825 33.5221 53.4825H33.3375C32.6592 53.4825 32.1777 52.8215 32.3856 52.1759L33.6318 48.3066C33.8398 47.661 33.3583 47 32.68 47Z" fill="#FCFCFC"/>
</svg>
